{"title":"Road Movie 2009 [K9]","uid":8714967,"size":1133618694,"categoryP":"video","categoryS":"movies","magnet":"?xt=urn:btih:75a93b855a2b2a05fd0a6380bd9b1b2400440e63&amp;dn=Road+Movie+2009+%5BK9%5D&amp;tr=udp%3A%2F%2Ftracker.openbittorrent.com%3A80&amp;tr=udp%3A%2F%2Fopen.demonii.com%3A1337&amp;tr=udp%3A%2F%2Ftracker.coppersurfer.tk%3A6969&amp;tr=udp%3A%2F%2Fexodus.desync.com%3A6969","seeders":1,"leechers":0,"uploader":"k9ateam","files":3,"time":1374313315,"description":"Road, Movie (2009)\n\nSynopsis:\nA young man's journey across the mythic Indian landscape becomes a life changing odyssey.\n\nLanguage: Hindi (English Subs - SRT file included)\n\nScreenShots: &lt;a href=&quot;\nhttp://i.imgur.com/F8VxoSc.png&quot; rel=&quot;nofollow&quot; target=&quot;_NEW&quot;&gt;\nhttp://i.imgur.com/F8VxoSc.png&lt;/a&gt; &lt;a href=&quot;\nhttp://i.imgur.com/mM30DxW.png&quot; rel=&quot;nofollow&quot; target=&quot;_NEW&quot;&gt;\nhttp://i.imgur.com/mM30DxW.png&lt;/a&gt; &lt;a href=&quot;\nhttp://i.imgur.com/sn2a3jw.png&quot; rel=&quot;nofollow&quot; target=&quot;_NEW&quot;&gt;\nhttp://i.imgur.com/sn2a3jw.png&lt;/a&gt; &lt;a href=&quot;\nhttp://i.imgur.com/l6CgpDx.png&quot; rel=&quot;nofollow&quot; target=&quot;_NEW&quot;&gt;\nhttp://i.imgur.com/l6CgpDx.png&lt;/a&gt; &lt;a href=&quot;\nhttp://i.imgur.com/QM6BKjc.png&quot; rel=&quot;nofollow&quot; target=&quot;_NEW&quot;&gt;\nhttp://i.imgur.com/QM6BKjc.png&lt;/a&gt;\n\nTechnical Details:\nFormat                                   : MPEG-4\nFormat profile                           : Base Media / Version 2\nCodec ID                                 : mp42\nFile size                                : 1.06 GiB\nDuration                                 : 1h 36mn\nOverall bit rate mode                    : Variable\nOverall bit rate                         : 1 559 Kbps\n\nVideo\nID                                       : 1\nFormat                                   : AVC\nFormat/Info                              : Advanced Video Codec\nFormat profile                           : &lt;a class=&quot;__cf_email__&quot; href=&quot;/cdn-cgi/l/email-protection&quot; data-cfemail=&quot;82caebe5eac2ceb1acb2&quot;&gt;[email&amp;#160;protected]&lt;/a&gt;&lt;script cf-hash='f9e31' type=&quot;text/javascript&quot;&gt;\n/* &lt;![CDATA[ */!function(){try{var t=&quot;currentScript&quot;in document?document.currentScript:function(){for(var t=document.getElementsByTagName(&quot;script&quot;),e=t.length;e--;)if(t[e].getAttribute(&quot;cf-hash&quot;))return t[e]}();if(t&amp;&amp;t.previousSibling){var e,r,n,i,c=t.previousSibling,a=c.getAttribute(&quot;data-cfemail&quot;);if(a){for(e=&quot;&quot;,r=parseInt(a.substr(0,2),16),n=2;a.length-n;n+=2)i=parseInt(a.substr(n,2),16)^r,e+=String.fromCharCode(i);e=document.createTextNode(e),c.parentNode.replaceChild(e,c)}}}catch(u){}}();/* ]]&gt; */&lt;/script&gt;\nFormat settings, CABAC                   : Yes\nFormat settings, ReFrames                : 4 frames\nCodec ID                                 : avc1\nCodec ID/Info                            : Advanced Video Coding\nDuration                                 : 1h 36mn\nBit rate mode                            : Variable\nBit rate                                 : 808 Kbps\nWidth                                    : 720 pixels\nHeight                                   : 368 pixels\nDisplay aspect ratio                     : 2.35:1\nFrame rate mode                          : Variable\nFrame rate                               : 24.177 fps\nMinimum frame rate                       : 12.100 fps\nMaximum frame rate                       : 60.000 fps\n\nAudio #1\nID                                       : 2\nFormat                                   : AAC\nFormat/Info                              : Advanced Audio Codec\nFormat profile                           : LC\nCodec ID                                 : 40\nDuration                                 : 1h 36mn\nBit rate mode                            : Variable\nBit rate                                 : 297 Kbps\nMaximum bit rate                         : 405 Kbps\nChannel(s)                               : 2 channels\nChannel positions                        : Front: L R\nSampling rate                            : 48.0 KHz\nCompression mode                         : Lossy\nDelay relative to video                  : 83ms\nStream size                              : 206 MiB (19%)\nLanguage                                 : English/Hindi\nEncoded date                             : UTC 2013-07-19 03:05:29\nTagged date                              : UTC 2013-07-19 03:32:05\n\n\nAudio #2\nID                                       : 3\nFormat                                   : AC-3\nFormat/Info                              : Audio Coding 3\nMode extension                           : CM (complete main)\nFormat settings, Endianness              : Big\nCodec ID                                 : ac-3\nDuration                                 : 1h 36mn\nBit rate mode                            : Constant\nBit rate                                 : 448 Kbps\nChannel(s)                               : 6 channels\nChannel positions                        : Front: L C R, Side: L R, LFE\nSampling rate                            : 48.0 KHz\nBit depth                                : 16 bits\nCompression mode                         : Lossy\nDelay relative to video                  : 83ms\nStream size                              : 311 MiB (29%)\nLanguage                                 : English/Hindi","torrent":{"xt":"urn:btih:75a93b855a2b2a05fd0a6380bd9b1b2400440e63","amp;dn":"Road+Movie+2009+%5BK9%5D","amp;tr":["udp%3A%2F%2Ftracker.openbittorrent.com%3A80","udp%3A%2F%2Fopen.demonii.com%3A1337","udp%3A%2F%2Ftracker.coppersurfer.tk%3A6969","udp%3A%2F%2Fexodus.desync.com%3A6969"],"infoHash":"75a93b855a2b2a05fd0a6380bd9b1b2400440e63","infoHashBuffer":{"type":"Buffer","data":[117,169,59,133,90,43,42,5,253,10,99,128,189,155,27,36,0,68,14,99]},"announce":[],"urlList":[]}}